<?xml version="1.0" encoding="UTF-8"?>
<svg version="1.1" xmlns="http://www.w3.org/2000/svg" width="876" height="876">
<path d="M0 0 C1.14373581 -0.00701431 2.28747162 -0.01402863 3.46586609 -0.02125549 C7.13483674 -0.03865223 10.80364587 -0.04510757 14.47265625 -0.046875 C16.35522125 -0.04788712 16.35522125 -0.04788712 18.27581787 -0.04891968 C36.89816732 -0.0330067 55.09418842 0.42637231 73.53515625 3.203125 C75.374729 3.46851074 75.374729 3.46851074 77.25146484 3.73925781 C124.98239389 10.73488062 171.67032808 24.8593136 214.52783203 47.16259766 C216.67830319 48.27732742 218.83880416 49.37106499 221 50.46484375 C254.43963591 67.54411511 285.10563047 89.9388947 312.58203125 115.47265625 C314.51119333 117.26520112 316.45848017 119.02538238 318.42578125 120.77734375 C357.3279208 155.57083487 387.92071551 200.50127879 410.58056641 247.24511719 C411.51315044 249.15798776 412.46621835 251.05951201 413.421875 252.9609375 C435.46448673 297.50749178 447.83961796 347.91215866 452.53515625 397.203125 C452.63086914 398.16984131 452.72658203 399.13655762 452.82519531 400.13256836 C453.87977392 412.4407103 453.7789382 424.79643549 453.78515625 437.140625 C453.78616837 438.94599731 453.78616837 438.94599731 453.78720093 440.7878418 C453.77060329 459.44792441 453.21549315 477.71035568 450.53515625 496.203125 C450.35823242 497.44803711 450.18130859 498.69294922 449.99902344 499.97558594 C437.1951196 587.7453516 398.72094075 670.20341159 338.265625 735.25 C336.47308013 737.17916208 334.71289887 739.12644892 332.9609375 741.09375 C301.63833886 776.11513084 261.89325134 804.31947274 220.53515625 826.203125 C219.1589209 826.93716553 219.1589209 826.93716553 217.75488281 827.68603516 C167.88683009 854.08338387 112.64861801 869.85369718 56.53515625 875.203125 C55.57496582 875.29883789 54.61477539 875.39455078 53.62548828 875.49316406 C41.12591988 876.56934971 28.57140496 876.44694481 16.03515625 876.453125 C14.19185226 876.45413712 14.19185226 876.45413712 12.31130981 876.45516968 C-6.14959734 876.43907158 -24.18210688 875.94288586 -42.46484375 873.203125 C-43.69267578 873.02620117 -44.92050781 872.84927734 -46.18554688 872.66699219 C-93.91473643 865.67073883 -140.60151643 851.54615535 -183.45751953 829.24365234 C-185.60799069 828.12892258 -187.76849166 827.03518501 -189.9296875 825.94140625 C-208.39306541 816.51124851 -225.74790796 805.44475581 -242.46484375 793.203125 C-243.48336426 792.46280029 -243.48336426 792.46280029 -244.52246094 791.70751953 C-257.56233618 782.20739231 -269.72954407 771.87153345 -281.546875 760.8984375 C-283.46587666 759.12586569 -285.40049567 757.37002762 -287.3515625 755.6328125 C-325.49298308 721.51431879 -356.44252102 677.17133295 -378.49511719 631.20751953 C-379.49925685 629.13199419 -380.53131995 627.07196587 -381.56640625 625.01171875 C-407.35245099 573.00852063 -422.42774113 511.80980022 -422.66796875 453.73828125 C-422.67498306 452.59454544 -422.68199738 451.45080963 -422.68922424 450.27241516 C-422.70662098 446.60344451 -422.71307632 442.93463538 -422.71484375 439.265625 C-422.71551849 438.01058167 -422.71619324 436.75553833 -422.71688843 435.46246338 C-422.70097545 416.84011393 -422.24159644 398.64409283 -419.46484375 380.203125 C-419.28791992 378.97674316 -419.11099609 377.75036133 -418.92871094 376.48681641 C-411.93308813 328.75588736 -397.80865515 282.06795317 -375.50537109 239.21044922 C-374.39064133 237.05997806 -373.29690376 234.89947709 -372.203125 232.73828125 C-362.77296726 214.27490334 -351.70647456 196.92006079 -339.46484375 180.203125 C-338.97129395 179.52411133 -338.47774414 178.84509766 -337.96923828 178.14550781 C-328.46911106 165.10563257 -318.1332522 152.93842468 -307.16015625 141.12109375 C-305.38758444 139.20209209 -303.63174637 137.26747308 -301.89453125 135.31640625 C-267.77603754 97.17498567 -223.4330517 66.22544773 -177.46923828 44.17285156 C-175.39371294 43.1687119 -173.33368462 42.1366488 -171.2734375 41.1015625 C-119.27023938 15.31551776 -58.07151897 0.24022762 0 0 Z " fill="#FEFEFE" transform="translate(422.46484375,-0.203125)"/>
<path d="M0 0 C0 8.58 0 17.16 0 26 C-4.02087257 27.60834903 -6.41124064 28.21368025 -10.56958008 28.47875977 C-29.03619392 29.75386083 -44.73571129 39.1194041 -57.3125 52.375 C-72.79975727 70.26973155 -77.56541191 90.59539107 -76.35498047 113.79589844 C-75.48536177 121.645194 -72.57786595 129.00616248 -69 136 C-68.34 136.33 -67.68 136.66 -67 137 C-66.78214844 136.30261719 -66.56429687 135.60523438 -66.33984375 134.88671875 C-64.66294025 131.27379838 -62.27720835 128.66445691 -59.5625 125.8125 C-59.02681396 125.24442627 -58.49112793 124.67635254 -57.93920898 124.09106445 C-46.83551987 112.44126547 -35.12969506 102.92410325 -20 97 C-19.35933594 96.73703125 -18.71867188 96.4740625 -18.05859375 96.203125 C1.22180684 88.56886537 30.68568671 85.00547609 50.359375 92.953125 C51.68977469 93.62332635 53.0037644 94.32783728 54.29296875 95.07421875 C56.17681544 96.18768266 56.17681544 96.18768266 59.25 96.8125 C63.93704959 98.29673237 67.73690872 100.66148423 71.9296875 103.19921875 C74.71721182 104.83414078 77.51526372 106.25111279 80.4375 107.625 C84.42380446 109.58651489 87.02313126 111.64148142 90 115 C91.41615363 116.35470318 92.8328855 117.70880199 94.25 119.0625 C108.47206069 133.37874653 117.70924873 150.64950533 123 170 C123.19360107 170.69391846 123.38720215 171.38783691 123.58666992 172.1027832 C127.77274365 188.6805334 125.71908001 206.84198577 120.64501953 222.94921875 C120.07666131 224.75626229 119.56321981 226.58038309 119.05859375 228.40625 C112.9908715 249.08548277 97.14766367 268.69517461 79.11401367 280.04589844 C77.69442533 280.95966628 76.33994459 281.97298918 75 283 C75 283.99 75 284.98 75 286 C77.02484188 287.51218959 77.02484188 287.51218959 79.6875 288.9375 C91.75080435 296.33363904 100.99908252 306.44469263 109 318 C109.63550781 318.9075 110.27101563 319.815 110.92578125 320.75 C125.46292137 343.44212117 128.11245779 371.88016421 122.76611328 397.77099609 C116.83480201 424.12174091 100.29422961 446.94239301 78.11328125 462.0546875 C70.19879518 467 70.19879518 467 67 467 C67 467.66 67 468.32 67 469 C62.84562937 472.10955886 58.24605347 473.25872736 53.3125 474.5625 C52.51537598 474.77865967 51.71825195 474.99481934 50.89697266 475.2175293 C45.30147326 476.71341784 39.70489869 477.98784055 34 479 C33.84144531 479.93199219 33.68289063 480.86398437 33.51953125 481.82421875 C28.78006238 507.72109561 15.00596974 531.83029128 -6.05859375 547.9921875 C-11.84631361 551.94290198 -17.91811524 555.43536236 -24.02319336 558.86987305 C-25.28765775 559.59275876 -26.54016012 560.33725658 -27.77563477 561.10864258 C-32.2602764 563.86837275 -36.48098255 565.11699366 -41.5625 566.1875 C-42.29146484 566.35185547 -43.02042969 566.51621094 -43.77148438 566.68554688 C-52.67359778 568.6646846 -61.12768848 569.26307484 -70.25 569.3125 C-70.91630432 569.31644775 -71.58260864 569.32039551 -72.269104 569.32446289 C-83.29633285 569.35499177 -93.44360021 568.20411051 -104 565 C-104 564.34 -104 563.68 -104 563 C-105.98 562.67 -107.96 562.34 -110 562 C-110 561.34 -110 560.68 -110 560 C-111.299375 560.0928125 -111.299375 560.0928125 -112.625 560.1875 C-116.44199033 559.97544498 -118.71077536 558.87955693 -122 557 C-122 556.34 -122 555.68 -122 555 C-123.53720703 554.65775391 -123.53720703 554.65775391 -125.10546875 554.30859375 C-129.22046136 553.12446042 -132.15034665 550.88094103 -135.3125 548.0625 C-135.87372559 547.57160889 -136.43495117 547.08071777 -137.01318359 546.57495117 C-145.03408816 539.43778289 -151.78669173 531.59486063 -157.9375 522.8125 C-158.62900146 521.83277222 -158.62900146 521.83277222 -159.33447266 520.83325195 C-161.95566824 516.97721006 -163.83226794 513.25678334 -165.35375977 508.85083008 C-166.2423301 506.30596734 -167.38590595 503.89064941 -168.5 501.4375 C-171.45390322 494.46771627 -172.75040398 487.43662023 -174 480 C-177.6374483 478.72768499 -181.14041682 477.70868109 -184.9375 477.0625 C-189.28882733 476.22720056 -192.95499235 474.84509121 -197 473 C-199.84172521 471.99798124 -202.68989405 471.02014725 -205.546875 470.0625 C-208.05320674 468.97695504 -209.11509388 467.90474724 -211 466 C-212.11375 465.56107422 -212.11375 465.56107422 -213.25 465.11328125 C-216.89851213 463.63625574 -219.82652167 461.48962798 -223 459.1875 C-223.90492188 458.54844727 -223.90492188 458.54844727 -224.828125 457.89648438 C-237.67397716 448.66701885 -246.74066214 435.8273102 -254 422 C-254.39703125 421.319375 -254.7940625 420.63875 -255.203125 419.9375 C-259.15794919 412.90670144 -260.94992018 404.74495948 -263 397 C-263.25136719 396.07316406 -263.50273437 395.14632813 -263.76171875 394.19140625 C-269.45131345 368.9715716 -263.36707149 340.9276315 -250.0546875 319.171875 C-241.68403689 306.24988205 -230.2266182 294.05922973 -217 286 C-216.34 286 -215.68 286 -215 286 C-215.68333145 282.85277643 -215.68333145 282.85277643 -218.2578125 281.67578125 C-219.67707031 281.00095703 -219.67707031 281.00095703 -221.125 280.3125 C-226.81381575 277.33229459 -230.08088413 273.98130615 -234 269 C-235.30568931 267.556311 -236.61846746 266.11900818 -237.9375 264.6875 C-246.51494484 254.96970122 -252.60205494 244.70448546 -258 233 C-258.5259375 231.87207031 -259.051875 230.74414062 -259.59375 229.58203125 C-267.69984339 208.93401002 -266.13520284 186.31598608 -262 165 C-261.34 165 -260.68 165 -260 165 C-259.95101562 164.37351562 -259.90203125 163.74703125 -259.8515625 163.1015625 C-259.73941406 161.87566406 -259.73941406 161.87566406 -259.625 160.625 C-259.55539062 159.81289063 -259.48578125 159.00078125 -259.4140625 158.1640625 C-259 156 -259 156 -257 154 C-256.649375 152.7625 -256.29875 151.525 -255.9375 150.25 C-251.98123066 137.98753333 -242.93928499 127.95173525 -234 119 C-232.70449219 117.68708984 -232.70449219 117.68708984 -231.3828125 116.34765625 C-226.36697724 111.51786829 -221.11187987 107.55416103 -215.1875 103.9375 C-214.25405762 103.3638269 -214.25405762 103.3638269 -213.30175781 102.77856445 C-209.55002323 100.58737041 -206.32241433 99.43025564 -202 99 C-202 98.34 -202 97.68 -202 97 C-198.85824591 96.0074141 -195.7109897 95.033488 -192.5625 94.0625 C-191.68400391 93.78470703 -190.80550781 93.50691406 -189.90039062 93.22070312 C-179.55686106 90.05275864 -169.78147256 89.81819845 -159 89.8125 C-157.78054688 89.80025391 -156.56109375 89.78800781 -155.3046875 89.77539062 C-148.5762015 89.76449135 -142.46345349 90.09938788 -136 92 C-135.2692627 92.20794189 -134.53852539 92.41588379 -133.78564453 92.63012695 C-131.53017105 93.29835195 -129.29585882 94.01135743 -127.0625 94.75 C-126.28124756 95.0080542 -125.49999512 95.2661084 -124.69506836 95.53198242 C-119.32773109 97.37608158 -114.57722995 99.62270792 -109.84765625 102.80078125 C-107.90618936 104.170845 -107.90618936 104.170845 -105 105 C-105.04640625 104.22140625 -105.0928125 103.4428125 -105.140625 102.640625 C-106.01291536 75.59962378 -95.11089226 53.40601007 -78.62890625 32.6953125 C-78.09136719 32.13585937 -77.55382812 31.57640625 -77 31 C-76.34 31 -75.68 31 -75 31 C-75 30.34 -75 29.68 -75 29 C-62.30572431 17.15040045 -47.68824098 7.85177792 -31 3 C-30.2678125 2.78472656 -29.535625 2.56945312 -28.78125 2.34765625 C-19.24288125 -0.24511462 -9.82596645 -0.09539773 0 0 Z " fill="#222938" transform="translate(508,184)"/>
<path d="M0 0 C0 0.66 0 1.32 0 2 C0.55171875 2.23847656 1.1034375 2.47695313 1.671875 2.72265625 C14.74056022 9.89289126 23.08518099 23.85177176 29 37 C29.3815625 37.84175781 29.763125 38.68351562 30.15625 39.55078125 C31.04957682 42.1439105 31.20644981 44.08393126 31.125 46.8125 C31.10695313 47.60269531 31.08890625 48.39289063 31.0703125 49.20703125 C31.04710937 49.79871094 31.02390625 50.39039063 31 51 C29.98421875 51.31453125 28.9684375 51.6290625 27.921875 51.953125 C25.04964639 52.84395042 22.18040883 53.74380778 19.3125 54.6484375 C16.77625831 55.44824354 14.2386487 56.22445498 11.6875 56.9765625 C-13.80045641 64.77208108 -32.37352827 84.87965886 -45.51953125 107.140625 C-47.02146871 110.04146463 -48.01022665 112.89297236 -49 116 C-49.515625 116.94875 -50.03125 117.8975 -50.5625 118.875 C-52.31923261 122.69398392 -52.57619743 125.83260807 -53 130 C-53.33 130.33 -53.66 130.66 -54 131 C-54.23075082 132.34747084 -54.41153063 133.70377565 -54.5625 135.0625 C-54.706875 136.361875 -54.85125 137.66125 -55 139 C-65.04899222 138.74530204 -75.70576568 135.8199693 -84 130 C-84 129.34 -84 128.68 -84 128 C-84.66 127.814375 -85.32 127.62875 -86 127.4375 C-99.29603452 121.06648346 -109.63388777 105.41071498 -115 92 C-123.08908935 69.00995659 -120.88259919 49.18094484 -111 27 C-108.04193139 21.52096569 -108.04193139 21.52096569 -105 20 C-104.0447181 18.28708073 -103.09039324 16.57360758 -102.14453125 14.85546875 C-100.46579857 12.13397379 -98.4033223 10.08709568 -96 8 C-95.34 8 -94.68 8 -94 8 C-94 7.34 -94 6.68 -94 6 C-91.96739707 4.43165191 -89.94337434 2.98538157 -87.8125 1.5625 C-87.23435547 1.16740234 -86.65621094 0.77230469 -86.06054688 0.36523438 C-84.38467443 -0.77284398 -82.69253618 -1.88685487 -81 -3 C-80.21753906 -3.52335937 -79.43507813 -4.04671875 -78.62890625 -4.5859375 C-53.17574803 -18.27693791 -24.12783465 -13.37909539 0 0 Z " fill="#FCFCFC" transform="translate(481,404)"/>
<path d="M0 0 C19.2515446 1.74426746 36.67785806 13.53583697 49 28 C54.30476692 35.06262106 58.0522735 42.69185305 61 51 C61.39167358 52.04522827 61.39167358 52.04522827 61.79125977 53.11157227 C64.27466262 60.35083543 64.48270003 67.20656759 64.4375 74.8125 C64.45748047 75.99392578 64.47746094 77.17535156 64.49804688 78.39257812 C64.48662308 99.24100323 54.08048424 116.7521141 39.9375 131.375 C38.64279456 132.60238076 37.33020968 133.81119056 36 135 C35.30390625 135.62648438 34.6078125 136.25296875 33.890625 136.8984375 C28.35314388 141.55227802 22.84451313 143.83324584 16 146 C14.55880298 146.531752 13.12085129 147.07244855 11.6875 147.625 C10.470625 148.07875 9.25375 148.5325 8 149 C6.606604 149.52932129 6.606604 149.52932129 5.18505859 150.06933594 C1.75519919 151.07153002 -1.08076095 151.25851909 -4.6484375 151.265625 C-5.90140625 151.26820313 -7.154375 151.27078125 -8.4453125 151.2734375 C-9.74210937 151.26570312 -11.03890625 151.25796875 -12.375 151.25 C-13.6640625 151.25773438 -14.953125 151.26546875 -16.28125 151.2734375 C-22.86470206 151.25991912 -28.71278302 151.00554263 -35 149 C-35 148.34 -35 147.68 -35 147 C-35.57105469 146.9484375 -36.14210938 146.896875 -36.73046875 146.84375 C-52.12385098 144.69014485 -64.40183145 132.98640997 -73.46801758 121.06640625 C-77.3770865 115.7177216 -80.34411563 110.06703585 -83 104 C-83.4125 103.08863281 -83.825 102.17726563 -84.25 101.23828125 C-86.27025494 96.54539738 -87.19392453 93.17629312 -87 88 C-83.56435978 86.99353274 -80.12620371 85.9959455 -76.6875 85 C-75.71103516 84.71382812 -74.73457031 84.42765625 -73.72851562 84.1328125 C-72.32182617 83.72675781 -72.32182617 83.72675781 -70.88671875 83.3125 C-70.02264404 83.06113281 -69.15856934 82.80976562 -68.26831055 82.55078125 C-66 82 -66 82 -63 82 C-63 81.34 -63 80.68 -63 80 C-62.48953125 79.79246094 -61.9790625 79.58492187 -61.453125 79.37109375 C-44.74168327 72.28947216 -29.18485107 61.2772766 -19 46 C-18.34 46 -17.68 46 -17 46 C-16.91234375 45.48308594 -16.8246875 44.96617187 -16.734375 44.43359375 C-15.71421943 41.05297184 -13.96531681 38.12754867 -12.25 35.0625 C-6.10378399 23.7575829 -2.33147424 12.64303512 0 0 Z " fill="#FCFCFC" transform="translate(450,574)"/>
<path d="M0 0 C15.93868059 -0.53802899 34.37182863 2.99363525 47.21484375 13.171875 C48.51400161 14.48374478 49.77513088 15.83477241 50.98828125 17.2265625 C52.7745547 19.25991686 54.67105104 20.8630377 56.7734375 22.5625 C66.05348203 30.5870091 72.09551836 42.58547701 75.7109375 54.1875 C75.99066406 55.0846875 76.27039063 55.981875 76.55859375 56.90625 C78.38694246 63.64137641 78.99441404 70.0579926 79.0234375 77 C79.03153442 78.18203003 79.03153442 78.18203003 79.03979492 79.38793945 C78.97632415 84.63062545 78.13558112 89.14277315 76.7109375 94.1875 C76.44603516 95.37859375 76.44603516 95.37859375 76.17578125 96.59375 C71.73885427 114.20999341 59.00478166 130.80883221 43.7109375 140.1875 C34.29323407 145.67329984 25.86728782 150.57220174 14.7109375 150.1875 C14.37221237 148.77211283 14.04019126 147.35512037 13.7109375 145.9375 C13.5253125 145.14859375 13.3396875 144.3596875 13.1484375 143.546875 C12.7109375 141.1875 12.7109375 141.1875 12.7109375 137.1875 C12.0509375 137.1875 11.3909375 137.1875 10.7109375 137.1875 C10.38222656 136.05054688 10.05351563 134.91359375 9.71484375 133.7421875 C6.47344212 123.0215258 2.47943575 114.11440571 -4.2890625 105.1875 C-4.72460449 104.60516602 -5.16014648 104.02283203 -5.60888672 103.42285156 C-13.16511633 93.50479293 -22.03589327 86.19944391 -32.2890625 79.1875 C-32.8564917 78.79667236 -33.4239209 78.40584473 -34.00854492 78.00317383 C-37.02886923 75.95068315 -39.88623473 74.49627991 -43.2890625 73.1875 C-43.99289062 72.72601563 -44.69671875 72.26453125 -45.421875 71.7890625 C-49.02850092 69.77446219 -52.63825991 68.7299841 -56.6015625 67.625 C-57.32279297 67.41681641 -58.04402344 67.20863281 -58.78710938 66.99414062 C-63.5961063 65.61829307 -68.43123816 64.37862755 -73.2890625 63.1875 C-72.95689069 61.52060145 -72.62327622 59.85399035 -72.2890625 58.1875 C-72.12148438 57.3109375 -71.95390625 56.434375 -71.78125 55.53125 C-68.87333462 42.13275383 -61.84951893 30.88778029 -52.2890625 21.1875 C-51.6290625 21.1875 -50.9690625 21.1875 -50.2890625 21.1875 C-50.2890625 20.5275 -50.2890625 19.8675 -50.2890625 19.1875 C-48.09273589 17.45480932 -45.89787582 15.83975538 -43.6015625 14.25 C-42.66280273 13.58581055 -42.66280273 13.58581055 -41.70507812 12.90820312 C-28.41890471 3.57310118 -16.01493365 0.70768598 0 0 Z " fill="#FCFCFC" transform="translate(526.2890625,301.8125)"/>
<path d="M0 0 C0.4021875 1.74410156 0.4021875 1.74410156 0.8125 3.5234375 C7.49962927 31.32935873 20.94134302 54.79723101 45 71 C46.18914179 71.91453585 47.37686391 72.83092378 48.5625 73.75 C51.9558275 76.17149146 55.59332715 77.58475069 59.484375 79.03515625 C61.7755293 79.91390643 63.92389774 80.92045175 66.125 82 C72.73145864 85.01053812 79.95517598 86.3749363 87 88 C86.7527292 94.03340751 86.04916347 98.83017353 83.03515625 104.11328125 C81.92516855 106.03076848 81.92516855 106.03076848 81.1171875 108.34765625 C72.89996079 127.85638679 54.8967676 140.17758122 36.07421875 148.02734375 C27.95545103 150.59605171 20.113471 151.35785878 11.625 151.3125 C10.62073975 151.31121094 9.61647949 151.30992187 8.58178711 151.30859375 C1.33481187 151.21471341 -5.1392837 150.4787104 -12 148 C-12 147.34 -12 146.68 -12 146 C-12.96099609 145.85304688 -12.96099609 145.85304688 -13.94140625 145.703125 C-19.78467725 144.69296191 -24.03161399 143.24025175 -29 140 C-29 139.34 -29 138.68 -29 138 C-29.55816406 137.92136719 -30.11632812 137.84273437 -30.69140625 137.76171875 C-37.74409755 135.43468863 -43.46277596 127.67153005 -48 122 C-48.66 121.67 -49.32 121.34 -50 121 C-51.34779291 118.58111338 -52.60052375 116.17345268 -53.8125 113.6875 C-54.34435913 112.60795044 -54.34435913 112.60795044 -54.88696289 111.5065918 C-60.682246 99.62487815 -64.17900611 90.12546521 -64.1875 76.875 C-64.19974609 75.89273438 -64.21199219 74.91046875 -64.22460938 73.8984375 C-64.25720011 57.38580016 -64.25720011 57.38580016 -60 51 C-59.7525 49.845 -59.505 48.69 -59.25 47.5 C-55.32376469 31.10571975 -41.50602842 17.74432302 -27.875 8.8125 C-19.5021513 3.82421059 -9.91216318 -0.48425835 0 0 Z " fill="#FCFCFD" transform="translate(335,484)"/>
<path d="M0 0 C1.3234187 0.37074496 2.65579796 0.71362652 4 1 C4 1.66 4 2.32 4 3 C4.85722656 3.22429687 5.71445312 3.44859375 6.59765625 3.6796875 C10.52001418 5.20179655 13.32097334 7.38356793 16.4375 10.125 C17.00807129 10.62 17.57864258 11.115 18.16650391 11.625 C29.71752501 21.79595899 38.18769101 33.89131 42 49 C42.12890625 52.921875 42.12890625 52.921875 42 56 C41.15574463 56.22550537 41.15574463 56.22550537 40.29443359 56.45556641 C9.35573817 64.7970977 -15.3615644 78.80776642 -32.37109375 107.01953125 C-33.80702241 109.64690191 -34.92854828 112.21141824 -36 115 C-36.61875 116.134375 -37.2375 117.26875 -37.875 118.4375 C-41.89166563 126.35048173 -43.89596085 135.24575019 -45 144 C-51.86013763 143.48225376 -57.65898336 141.63147946 -64 139 C-64.97324219 138.60039062 -65.94648438 138.20078125 -66.94921875 137.7890625 C-80.54163638 131.6413808 -91.83506576 120.02319354 -99 107 C-99 106.34 -99 105.68 -99 105 C-99.66 105 -100.32 105 -101 105 C-101.95899351 102.29189883 -102.91721447 99.58352839 -103.875 96.875 C-104.27912109 95.73417969 -104.27912109 95.73417969 -104.69140625 94.5703125 C-105.2237912 93.06405264 -105.75133023 91.55607092 -106.27392578 90.04638672 C-106.86184888 88.38936877 -107.50822037 86.75316602 -108.171875 85.125 C-109.40629755 80.46680171 -109.3828625 75.92544748 -109.375 71.125 C-109.37258301 69.59613159 -109.37258301 69.59613159 -109.37011719 68.03637695 C-109.13042053 53.10351017 -105.25133685 37.05191161 -96 25 C-95.34 24.67 -94.68 24.34 -94 24 C-92.98648336 22.34151823 -91.98879205 20.67334039 -91 19 C-87.89800438 14.69769838 -84.34709328 11.64505802 -80.1875 8.4375 C-79.59646484 7.96892578 -79.00542969 7.50035156 -78.39648438 7.01757812 C-72.15445692 2.15056653 -65.87682879 -1.31362891 -58.3125 -3.6875 C-57.66216797 -3.89955078 -57.01183594 -4.11160156 -56.34179688 -4.33007812 C-39.07535768 -9.9095493 -15.93403565 -9.19271288 0 0 Z " fill="#FCFCFD" transform="translate(380,309)"/>
<path d="M0 0 C0.98613281 0.35191406 1.97226562 0.70382812 2.98828125 1.06640625 C22.20874818 8.46640813 37.54270076 22.13982564 46 41 C46.515625 42.11375 47.03125 43.2275 47.5625 44.375 C55.535731 64.48140862 54.68042984 84.00749725 46.8359375 103.9609375 C43.78416441 110.54197199 39.4191408 116.2805951 35 122 C34.37480469 122.8353125 33.74960937 123.670625 33.10546875 124.53125 C24.28277705 134.87622431 7.14278274 146.86531885 -6.625 148.125 C-8.08392187 148.12938115 -9.54514562 148.10895385 -11 148 C-11.21914063 147.030625 -11.43828125 146.06125 -11.6640625 145.0625 C-18.3984151 116.21448039 -32.31581739 91.90788505 -57.90161133 75.88085938 C-67.67550473 69.82184853 -77.15299404 65.14942025 -88.4375 62.8125 C-89.26443359 62.63525391 -90.09136719 62.45800781 -90.94335938 62.27539062 C-92.96088887 61.84389588 -94.98026396 61.4210455 -97 61 C-99.47867793 50.88627036 -95.1537884 41.57502665 -90 33 C-82.63970774 22.10676745 -73.72478105 10.68807723 -61 6 C-59.700625 5.06800781 -59.700625 5.06800781 -58.375 4.1171875 C-42.66851477 -5.73572337 -17.00248021 -6.40486773 0 0 Z " fill="#FCFCFD" transform="translate(552,486)"/>
<path d="M0 0 C34.31472307 -1.08935629 64.22432001 12.8623815 89 36 C99.96592475 46.96592475 108.63087044 60.50126104 114 75 C114.63615234 76.62035156 114.63615234 76.62035156 115.28515625 78.2734375 C120.51188195 91.59168315 122.1743941 103.14298346 122.13037109 117.37426758 C122.12501972 119.42992559 122.13034007 121.4853643 122.13671875 123.54101562 C122.14535797 138.61987213 122.14535797 138.61987213 121 145 C119.08332745 146.91667255 115.72962392 146.17462197 113.1875 146.1875 C102.15320883 146.11612684 92.3958561 143.95923498 81.875 140.6875 C80.9564624 140.40382568 80.0379248 140.12015137 79.09155273 139.82788086 C70.96387477 137.20654266 62.90836587 134.36285555 57 128 C54.88719655 127.36707617 54.88719655 127.36707617 53 127 C52.67 126.34 52.34 125.68 52 125 C51.030625 124.484375 50.06125 123.96875 49.0625 123.4375 C43.6783499 120.45973535 39.43994971 116.20696884 35 112 C34.17113281 111.2471875 33.34226562 110.494375 32.48828125 109.71875 C14.55877783 92.83067771 4.77270871 69.4256912 -0.16796875 45.74609375 C-0.79478353 42.20823065 -0.79478353 42.20823065 -2 40 C-2.24767218 35.92235856 -2.18975559 31.8343079 -2.1875 27.75 C-2.18814453 26.5738916 -2.18878906 25.3977832 -2.18945312 24.18603516 C-2.13945227 15.9529394 -1.64653146 8.08564555 0 0 Z " fill="#222A39" transform="translate(275,123)"/>
<path d="M0 0 C5.62853905 0.5110217 9.81982888 2.02651415 14.8125 4.625 C15.86679199 5.1667688 15.86679199 5.1667688 16.94238281 5.71948242 C34.65760106 14.99859157 51.7204462 29.89117128 59 49 C59.45375 50.010625 59.9075 51.02125 60.375 52.0625 C64.45679293 61.70469453 66.66105718 70.49277252 67 81 C61.82425481 81.3044556 59.28601013 80.82249448 55 78 C53.2365625 77.4121875 53.2365625 77.4121875 51.4375 76.8125 C31.10593393 69.37412217 16.44245274 50.33926729 7.53515625 31.4296875 C7.02855469 30.29789063 6.52195312 29.16609375 6 28 C5.50371094 26.93007812 5.00742187 25.86015625 4.49609375 24.7578125 C0.91864027 16.42061321 0.13663308 8.98051972 0 0 Z " fill="#F9F9FA" transform="translate(302,155)"/>
<path d="M0 0 C-1.66135251 4.26173035 -4.74435318 7.03991533 -7.9375 10.1875 C-8.47568359 10.73341797 -9.01386719 11.27933594 -9.56835938 11.84179688 C-12.01160618 14.27299314 -13.68733927 15.89577976 -17 17 C-15.68692628 14.10147635 -14.27315362 12.01722783 -12.03125 9.765625 C-11.17466797 8.90517578 -11.17466797 8.90517578 -10.30078125 8.02734375 C-9.70652344 7.44082031 -9.11226563 6.85429687 -8.5 6.25 C-7.90574219 5.64800781 -7.31148438 5.04601562 -6.69921875 4.42578125 C-6.12816406 3.85730469 -5.55710937 3.28882813 -4.96875 2.703125 C-4.44732422 2.18395508 -3.92589844 1.66478516 -3.38867188 1.12988281 C-2 0 -2 0 0 0 Z " fill="#494F5C" transform="translate(282,478)"/>
<path d="M0 0 C-1.66463038 4.28642324 -4.79075837 7.08617217 -8 10.25 C-8.5465625 10.80429687 -9.093125 11.35859375 -9.65625 11.9296875 C-13.7466133 16 -13.7466133 16 -16 16 C-14.33536962 11.71357676 -11.20924163 8.91382783 -8 5.75 C-7.4534375 5.19570313 -6.906875 4.64140625 -6.34375 4.0703125 C-2.2533867 0 -2.2533867 0 0 0 Z " fill="#434A56" transform="translate(463,478)"/>
<path d="M0 0 C0.66 0.33 1.32 0.66 2 1 C-2.60136502 6.53601728 -7.46398272 11.39863498 -13 16 C-13 13 -13 13 -11.80664062 11.46606445 C-11.26201172 10.937146 -10.71738281 10.40822754 -10.15625 9.86328125 C-9.56972656 9.28642578 -8.98320312 8.70957031 -8.37890625 8.11523438 C-7.75886719 7.52033203 -7.13882812 6.92542969 -6.5 6.3125 C-5.87996094 5.70599609 -5.25992187 5.09949219 -4.62109375 4.47460938 C-3.08735293 2.97626257 -1.54451802 1.48723507 0 0 Z " fill="#4C525E" transform="translate(461,297)"/>
<path d="M0 0 C0.66 0.33 1.32 0.66 2 1 C-2.60136502 6.53601728 -7.46398272 11.39863498 -13 16 C-13 13 -13 13 -11.80664062 11.46606445 C-11.26201172 10.937146 -10.71738281 10.40822754 -10.15625 9.86328125 C-9.56972656 9.28642578 -8.98320312 8.70957031 -8.37890625 8.11523438 C-7.75886719 7.52033203 -7.13882812 6.92542969 -6.5 6.3125 C-5.87996094 5.70599609 -5.25992187 5.09949219 -4.62109375 4.47460938 C-3.08735293 2.97626257 -1.54451802 1.48723507 0 0 Z " fill="#4B525D" transform="translate(280,297)"/>
<path d="M0 0 C0 2 0 2 -2 4.125 C-2.44988281 4.55425781 -2.89976562 4.98351562 -3.36328125 5.42578125 C-4.61348163 6.62824128 -5.83502262 7.86056824 -7.04296875 9.10546875 C-8.10451172 10.19794922 -8.10451172 10.19794922 -9.1875 11.3125 C-9.86167969 12.00988281 -10.53585937 12.70726562 -11.23046875 13.42578125 C-13 15 -13 15 -15 15 C-13.387672 10.96918 -10.53765404 8.24055863 -7.5 5.25 C-7.00113281 4.74339844 -6.50226563 4.23679687 -5.98828125 3.71484375 C-2.25341139 0 -2.25341139 0 0 0 Z " fill="#4B515D" transform="translate(372,388)"/>
<path d="M0 0 C0.66 0.33 1.32 0.66 2 1 C0.73657512 2.48549956 -0.5360103 3.96321189 -1.8125 5.4375 C-2.52019531 6.26121094 -3.22789062 7.08492188 -3.95703125 7.93359375 C-6 10 -6 10 -9 11 C-7.59155282 7.78475695 -5.89655214 5.67816132 -3.375 3.25 C-2.74335938 2.63640625 -2.11171875 2.0228125 -1.4609375 1.390625 C-0.73777344 0.70226562 -0.73777344 0.70226562 0 0 Z " fill="#BBBDC2" transform="translate(478,500)"/>
<path d="M0 0 C0.66 0.33 1.32 0.66 2 1 C0.73657512 2.48549956 -0.5360103 3.96321189 -1.8125 5.4375 C-2.52019531 6.26121094 -3.22789062 7.08492187 -3.95703125 7.93359375 C-6 10 -6 10 -9 11 C-7.59155282 7.78475695 -5.89655214 5.67816132 -3.375 3.25 C-2.74335938 2.63640625 -2.11171875 2.0228125 -1.4609375 1.390625 C-0.73777344 0.70226562 -0.73777344 0.70226562 0 0 Z " fill="#BEC0C5" transform="translate(458,228)"/>
<path d="M0 0 C0.33 0 0.66 0 1 0 C1.1875 2.375 1.1875 2.375 1 5 C-2.20380017 7.13586678 -3.01939967 7.23132175 -6.6875 7.125 C-7.89986328 7.09792969 -7.89986328 7.09792969 -9.13671875 7.0703125 C-10.05904297 7.03550781 -10.05904297 7.03550781 -11 7 C-8.09907498 5.06604999 -7.10325263 4.69868059 -3.8125 4.375 C-2.554375 4.25125 -1.29625 4.1275 0 4 C0 2.68 0 1.36 0 0 Z " fill="#7D828A" transform="translate(512,451)"/>
<path d="M0 0 C0.66 0.33 1.32 0.66 2 1 C1.07038578 2.15224028 0.1309875 3.29659176 -0.8125 4.4375 C-1.59560547 5.39462891 -1.59560547 5.39462891 -2.39453125 6.37109375 C-4 8 -4 8 -7 9 C-5.44499019 5.18315774 -2.96404505 2.80804268 0 0 Z " fill="#BBBEC2" transform="translate(296,501)"/>
<path d="M0 0 C2.0625 0.4375 2.0625 0.4375 4 1 C3.34 1 2.68 1 2 1 C1.71125 1.598125 1.4225 2.19625 1.125 2.8125 C0 5 0 5 -2 8 C-1.125 1.125 -1.125 1.125 0 0 Z " fill="#BBBEC2" transform="translate(542,662)"/>
</svg>
